<?xml version="1.0" standalone="no"?>
<!DOCTYPE svg PUBLIC "-//W3C//DTD SVG 1.0//EN" "http://www.w3.org/TR/2001/REC-SVG-20010904/DTD/svg10.dtd">
<svg xmlns="http://www.w3.org/2000/svg" xmlns:xlink="http://www.w3.org/1999/xlink" id="body_1" width="32" height="24">

<g transform="matrix(0.03125 0 0 0.03125 0 0)">
    <path transform="matrix(0.768 0 0 0.768 128 0)"  d="M496.9 13.1C 632.5 13.1 755.8 68.6 842.1 154.9C 934.5 241.1 990 364.4 990 500C 990 635.6 934.5 758.9 848.2 845.2C 762 931.4 638.7 986.9 503.1 986.9C 367.5 986.9 244.2 931.4 157.9 845.1C 65.5 758.9 10 635.6 10 500C 10 364.4 65.5 241.1 151.8 154.8C 244.2 68.6 361.3 13.1 496.9 13.1zM459.9 167.2C 459.9 142.5 478.4 130.2 496.9 130.2C 515.4 130.2 533.9 148.7 533.9 167.2L533.9 167.2L533.9 463L780.4 463C 798.9 463 817.4 481.5 817.4 500C 817.4 518.5 798.9 537 780.4 537L780.4 537L496.9 537C 478.4 537 459.9 518.5 459.9 500L459.9 500L459.9 167.2zM792.8 210.3C 718.8 136.4 614 87 503.1 87C 386 87 287.4 136.4 213.4 210.3C 139.4 284.3 90.09999 389 90.09999 500C 90.09999 610.9 139.4 715.7 213.4 789.7C 287.4 863.7 392.1 913 503.1 913C 614 913 718.8 863.7 792.8 789.7C 866.8 715.7 916.1 611 916.1 500C 909.9 389.1 866.7 284.3 792.8 210.3z" stroke="none" fill="#000000" fill-rule="nonzero" />
</g>
</svg>