<?xml version="1.0" encoding="UTF-8"?>
<svg xmlns="http://www.w3.org/2000/svg" xmlns:xlink="http://www.w3.org/1999/xlink" width="16pt" height="16pt" viewBox="0 0 16 16" version="1.1">
<g id="surface1">
<path style=" stroke:none;fill-rule:nonzero;fill:rgb(0%,0%,0%);fill-opacity:1;" d="M 13.25 8 C 13.25 6.25 12.390625 4.703125 11.070312 3.75 L 11.25 3.75 L 11.25 0 L 4.75 0 L 4.75 3.75 L 4.929688 3.75 C 3.609375 4.703125 2.75 6.25 2.75 8 C 2.75 9.75 3.609375 11.296875 4.929688 12.25 L 4.75 12.25 L 4.75 16 L 11.25 16 L 11.25 12.25 L 11.070312 12.25 C 12.390625 11.296875 13.25 9.75 13.25 8 Z M 5.25 0.5 L 10.75 0.5 L 10.75 3.539062 C 9.949219 3.039062 9.007812 2.75 8 2.75 C 6.992188 2.75 6.050781 3.039062 5.25 3.539062 Z M 10.75 15.5 L 5.25 15.5 L 5.25 12.460938 C 6.050781 12.960938 6.992188 13.25 8 13.25 C 9.007812 13.25 9.949219 12.960938 10.75 12.460938 Z M 8 12.75 C 5.382812 12.75 3.25 10.617188 3.25 8 C 3.25 5.382812 5.382812 3.25 8 3.25 C 10.617188 3.25 12.75 5.382812 12.75 8 C 12.75 10.617188 10.617188 12.75 8 12.75 Z M 8 12.75 "/>
<path style=" stroke:none;fill-rule:nonzero;fill:rgb(0%,0%,0%);fill-opacity:1;" d="M 8.25 5 L 7.75 5 L 7.75 8.15625 L 9.890625 9.226562 L 10.109375 8.773438 L 8.25 7.84375 Z M 8.25 5 "/>
</g>
</svg>
